# xmcd
#
# Track frame offsets:
#	150
#	12107
#	23520
#	36644
#	48862
#	59381
#	72264
#	85395
#	97108
#	109260
#	118023
#	128077
#	139746
#	150276
#	161471
#	173904
#	185146
#	195523
#	207887
#	217949
#	228791
#	238360
#	249163
#	258665
#	269214
#	279746
#	290823
#	299777
#	308556
#	319959
#
# Disc length: 4410 seconds
#
# Revision: 2
# Processed by: cddbd v1.5.2PL0 Copyright (c) Steve Scherf et al.
# Submitted via: audiograbber 1.83.01
#
DISCID=ca11381e
DTITLE=Wooley, Sheb - White Lightnin'
DYEAR=2012
DGENRE=Western Bop
TTITLE0=Hoot Owl Boogie
TTITLE1=Oklahoma Honky Tonk Girl
TTITLE2=Peepin´ Through The Keyhole (Watching Jole Blon)
TTITLE3=Your Papa Ain´t Steppin´ Anymore
TTITLE4=Mule Boogie
TTITLE5=I Can´t Live Without You
TTITLE6=Lazy Mazy
TTITLE7=Texas Rose
TTITLE8=Wha´ Hoppen To Me, Baby
TTITLE9=That Mean Feeling
TTITLE10=You´re The Cats Meow
TTITLE11=Freight Train Cinders In My Eyes
TTITLE12=Country Kisses
TTITLE13=Down In The Toolies
TTITLE14=What´cha Gonna Do
TTITLE15=White Lightnin´
TTITLE16=I Flipped
TTITLE17=Rover Scoot Over
TTITLE18=Goodbye Texas, Hello Tennessee
TTITLE19=Love Is Just Another Merry-Go-Round
TTITLE20=Tom, The Boogie Woogie Tom Cat
TTITLE21=I Go Outa My Mind
TTITLE22=38 - 24 - 35
TTITLE23=You Never Can Tell
TTITLE24=Backroom Boogie  (Instrumental)
TTITLE25=Don´t Stop Kissing Me Goodnight
TTITLE26=Hill Billy Mambo
TTITLE27=Humdinger
TTITLE28=Roughneck
TTITLE29=That´s My Pa
EXTD=
EXTT0=
EXTT1=
EXTT2=
EXTT3=
EXTT4=
EXTT5=
EXTT6=
EXTT7=
EXTT8=
EXTT9=
EXTT10=
EXTT11=
EXTT12=
EXTT13=
EXTT14=
EXTT15=
EXTT16=
EXTT17=
EXTT18=
EXTT19=
EXTT20=
EXTT21=
EXTT22=
EXTT23=
EXTT24=
EXTT25=
EXTT26=
EXTT27=
EXTT28=
EXTT29=
PLAYORDER=
